<?xml version="1.0" encoding="UTF-8" standalone="no"?>
<!-- Created with Inkscape (http://www.inkscape.org/) -->

<svg
   width="186.98341mm"
   height="186.98341mm"
   viewBox="0 0 186.98341 186.98341"
   version="1.1"
   id="svg1"
   inkscape:version="1.3 (0e150ed6c4, 2023-07-21)"
   sodipodi:docname="favicon.svg"
   xmlns:inkscape="http://www.inkscape.org/namespaces/inkscape"
   xmlns:sodipodi="http://sodipodi.sourceforge.net/DTD/sodipodi-0.dtd"
   xmlns="http://www.w3.org/2000/svg"
   xmlns:svg="http://www.w3.org/2000/svg">
  <sodipodi:namedview
     id="namedview1"
     pagecolor="#ffffff"
     bordercolor="#000000"
     borderopacity="0.25"
     inkscape:showpageshadow="2"
     inkscape:pageopacity="0.0"
     inkscape:pagecheckerboard="0"
     inkscape:deskcolor="#d1d1d1"
     inkscape:document-units="mm"
     inkscape:zoom="0.45344416"
     inkscape:cx="396.96177"
     inkscape:cy="561.25984"
     inkscape:window-width="1366"
     inkscape:window-height="705"
     inkscape:window-x="-8"
     inkscape:window-y="-8"
     inkscape:window-maximized="1"
     inkscape:current-layer="layer1" />
  <defs
     id="defs1" />
  <g
     inkscape:label="Layer 1"
     inkscape:groupmode="layer"
     id="layer1"
     transform="translate(-10.95437,-62.885569)">
    <path
       id="rect1"
       style="fill:#1dffea;fill-opacity:1;stroke:#000000;stroke-width:0.264583"
       d="M 104.44582,63.017859 A 93.359528,93.359528 0 0 0 59.207756,74.979403 H 19.255155 v 43.333787 a 93.359528,93.359528 0 0 0 -8.168493,38.06383 93.359528,93.359528 0 0 0 8.168493,38.06434 v 43.33379 h 39.952601 a 93.359528,93.359528 0 0 0 45.238064,11.96154 93.359528,93.359528 0 0 0 45.23858,-11.96154 h 39.95209 V 194.4424 a 93.359528,93.359528 0 0 0 8.16901,-38.06538 93.359528,93.359528 0 0 0 -8.16901,-38.12377 V 74.979403 H 150.11125 A 93.359528,93.359528 0 0 0 104.44582,63.017859 Z m 5.2e-4,54.556881 a 56.015717,38.802551 0 0 1 56.0157,38.80228 56.015717,38.802551 0 0 1 -20.89795,30.21417 l 12.87622,6.20169 -21.66328,14.76861 -1.23662,-16.51372 a 56.015717,38.802551 0 0 1 -22.39863,3.98529 l 8.65839,15.01717 -26.218558,-0.016 8.800497,-15.22181 A 56.015717,38.802551 0 0 1 76.92347,189.9021 l 0.63407,14.84251 -23.244576,-12.12794 12.427148,-7.90081 A 56.015717,38.802551 0 0 1 48.430119,156.37702 56.015717,38.802551 0 0 1 104.44634,117.57474 Z m 38.47465,84.96484 2.26498,1.23455 -0.0739,0.13539 c -0.76361,0.29526 -1.54152,0.80881 -2.3337,1.54047 -0.79516,0.7217 -1.44804,1.55045 -1.95802,2.48616 -0.55928,1.02601 -0.7963,1.96807 -0.71159,2.82618 0.0882,0.85165 0.46782,1.46043 1.13895,1.82624 0.60014,0.32713 1.1557,0.42874 1.66656,0.30541 0.51086,-0.12333 1.06957,-0.52585 1.67587,-1.20819 0.31546,-0.36376 0.74521,-0.89121 1.28933,-1.58234 0.54412,-0.69107 1.02816,-1.26449 1.45211,-1.71979 0.86779,-0.91646 1.73624,-1.48923 2.60604,-1.71824 0.8698,-0.22901 1.82106,-0.062 2.85357,0.50075 0.56142,0.30602 1.04418,0.74075 1.44849,1.30431 0.40782,0.55711 0.67393,1.17503 0.79789,1.85363 0.13156,0.74138 0.12546,1.52077 -0.0186,2.33784 -0.14053,0.81067 -0.4749,1.70009 -1.00252,2.66806 -0.56631,1.03896 -1.1727,1.92148 -1.82005,2.64842 -0.64378,0.72048 -1.39006,1.40654 -2.23862,2.05723 l -2.40089,-1.30844 0.0739,-0.13591 c 1.00407,-0.39857 1.93101,-0.98545 2.78071,-1.76113 0.84969,-0.77568 1.50338,-1.58317 1.9606,-2.42208 0.64722,-1.18738 0.92727,-2.23118 0.84078,-3.13211 -0.083,-0.90738 -0.49554,-1.56333 -1.23765,-1.96784 -0.63887,-0.34822 -1.19608,-0.44699 -1.67173,-0.2961 -0.47214,0.14443 -0.96607,0.49025 -1.48208,1.03766 -0.39288,0.41364 -0.78583,0.88138 -1.17926,1.40353 -0.38991,0.5157 -0.82175,1.0549 -1.29553,1.61696 -0.96748,1.13 -1.94629,1.8271 -2.93574,2.09134 -0.99233,0.25427 -2.01409,0.0943 -3.06596,-0.47904 -1.20674,-0.65776 -1.91638,-1.70534 -2.12855,-3.14347 -0.21862,-1.4417 0.0992,-2.9469 0.95395,-4.51497 0.55224,-1.01315 1.15584,-1.88945 1.81022,-2.6293 0.65438,-0.73984 1.30125,-1.35823 1.94045,-1.85518 z m -75.569029,3.57135 1.234033,1.80041 -7.065718,4.84312 11.571903,1.73116 1.496033,2.18229 -10.509953,-1.68362 -2.836519,11.24635 -1.601969,-2.33681 2.357478,-9.48831 -2.359029,-0.36122 -4.591968,3.14761 -1.234033,-1.80041 z m 65.951529,10.20093 9.90069,13.09326 -1.74098,1.3162 -4.84725,-6.40995 -6.53345,4.94027 4.84725,6.41046 -1.74098,1.31672 -9.90069,-13.09326 1.74098,-1.31672 3.88297,5.13561 6.53345,-4.94079 -3.88297,-5.13508 z m -57.138113,1.80868 11.708329,7.51478 -1.047998,1.63298 -4.935616,-3.16828 -7.818644,12.1822 -1.837097,-1.17926 7.818644,-12.18168 -4.935616,-3.16777 z m 40.534473,8.32455 c 0.90721,0.0153 1.94298,0.16768 3.10731,0.45682 l 0.56585,2.52801 -0.16123,0.0362 c -1.04754,-0.54122 -2.0431,-0.88351 -2.98638,-1.0263 -0.94328,-0.14279 -1.90982,-0.10325 -2.89956,0.11834 -0.81043,0.18145 -1.51206,0.47787 -2.1053,0.88935 -0.58767,0.40271 -1.07429,0.93727 -1.45986,1.60352 -0.37444,0.6487 -0.6093,1.41686 -0.70435,2.30426 -0.0895,0.87858 -0.0135,1.8558 0.22738,2.9316 0.2521,1.126 0.61907,2.06045 1.10174,2.80345 0.48985,0.74138 1.03225,1.31299 1.62677,1.71462 0.62087,0.41833 1.29373,0.68179 2.01848,0.79065 0.73037,0.10008 1.46845,0.0667 2.21434,-0.10025 1.02559,-0.22962 1.94739,-0.6204 2.76521,-1.17254 0.81777,-0.55214 1.53879,-1.26721 2.16317,-2.14509 l 0.1509,-0.0341 0.55862,2.49598 c -0.35592,0.26039 -0.67836,0.50214 -0.96738,0.72502 -0.28185,0.22126 -0.6626,0.47235 -1.14205,0.75292 -0.40698,0.23421 -0.85841,0.45571 -1.35393,0.66456 -0.48672,0.21441 -1.0384,0.39056 -1.65519,0.52865 -1.16186,0.26013 -2.25584,0.33552 -3.28197,0.22634 -1.02057,-0.11795 -1.95986,-0.44611 -2.81843,-0.98443 -0.84106,-0.52719 -1.57246,-1.27099 -2.19419,-2.23139 -0.62332,-0.96757 -1.09098,-2.14693 -1.40249,-3.53829 -0.29546,-1.31964 -0.37318,-2.54093 -0.23307,-3.66437 0.14012,-1.12343 0.48148,-2.12268 1.02371,-2.99724 0.52558,-0.84818 1.22769,-1.56259 2.10685,-2.14353 0.88632,-0.58255 1.91767,-1.00584 3.09387,-1.26918 0.86064,-0.19268 1.74115,-0.28045 2.64118,-0.26355 z m -25.04653,0.26769 10.63346,1.97145 -0.35347,1.9079 -8.487334,-1.57355 -0.820105,4.42247 8.487339,1.57355 -0.35347,1.90789 -8.487853,-1.57355 -1.111043,5.99395 8.487337,1.57355 -0.353467,1.90789 -10.633976,-1.97145 z"
       inkscape:export-filename="ktechs-logo.png"
       inkscape:export-xdpi="96.761902"
       inkscape:export-ydpi="96.761902" />
  </g>
</svg>
